<?xml version="1.0" encoding="utf-8"?>

<!DOCTYPE svg PUBLIC "-//W3C//DTD SVG 1.1//EN" "http://www.w3.org/Graphics/SVG/1.1/DTD/svg11.dtd">
<svg version="1.1" id="Layer_1" xmlns="http://www.w3.org/2000/svg" xmlns:xlink="http://www.w3.org/1999/xlink" x="0px" y="0px"
	 viewBox="0 0 2560.081 1706.747" enable-background="new 0 0 2560.081 1706.747" xml:space="preserve">
<path stroke="#FFFFFF" stroke-width="0.08" d="M2560.041,145.149v-27.768c-59.896-0.043-119.791,0.026-179.678-0.034
	c0.12-39.1,0.025-78.208,0.042-117.308h-27.793c0.188,39.108-0.026,78.208,0.137,117.316c-69.564,0.051-139.136-0.026-208.691,0.034
	c-17.848-57.46-64.459-70.538-66.475-74.257c5.174-4.551,23.962-23.689,43.597-43.093h-39.245
	c-12.305,11.887-24.081,24.354-36.531,36.07c-65.465-6.987-119.866,43.647-125.303,100.429c-2.49,0.002-383.17,0.595-384.794-0.964
	c-12.313-9.506-24.721-18.876-37.018-28.39c-7.629,0.051-15.257,0-22.878,0.026c-0.008,2.423-0.008,4.847-0.008,7.279
	c9.54,7.484,19.294,14.703,28.843,22.187c-9.643-0.452-19.311,0.367-28.928-0.35c-2.529-46.062-47.699-99.222-110.848-100.821
	c-0.051-11.827,0.179-23.646,0-35.465h-27.691c0.009,12.681-0.008,25.361,0.017,38.042c-79.89,14.732-119.88,118.937-64.282,184.448
	c-85.521,85.316-171.17,170.513-256.691,255.821c-82.901-0.06-165.803,0.017-248.704-0.034c0.119-18.876,0.102-37.76,0-56.627
	c110.948-75.369,31.638-229.229-72.465-211.482c0.034-70.059-0.06-140.117,0.06-210.167H666.92c0,72.072-0.009,144.145,0,216.218
	c-13.262,4.331-26.356,13.115-37.103,22.084c-0.993-1-201.44-202.221-237.568-238.302h-38.86
	c46.691,47.241,240.774,241.753,258.005,259.055c-45.49,69.876-9.25,150.503,55.518,173.312c0.051,15.3-0.077,30.601,0.068,45.901
	c-134.272,0.051-268.544,0.009-402.816,0.026c0.595-63.106-51.97-115.937-115.635-115.132
	c-0.034-121.054,0.051-242.108-0.068-363.162h-27.674c-0.026,122.249,0.051,244.506-0.043,366.754
	c-23.698,3.253-86.297,39.296-86.246,111.531c-11.486,0.017-22.972-0.017-34.458,0.017v27.665
	c12.723,0.307,25.455-0.119,38.178,0.188c28.022,115.053,192.771,115.249,222.55-0.162c135.381,0.043,270.763,0.085,406.144-0.026
	c0.051,16.367-0.068,32.734,0.06,49.101c-63.462,0.009-126.925,0.094-190.387-0.043c-15.122,15.237-142.016,142.44-146.423,146.313
	c-104.325-72.781-232.128,55.987-159.497,159.787c-17.945,17.766-35.644,35.823-53.675,53.495
	c-38.963,0.341-77.969-0.119-116.949,0.23v27.648c43.093,0.043,86.178-0.017,129.271,0.034c19.806-20.344,40.158-40.158,60.1-60.373
	c65.356,57.881,167.591,22.905,186.854-58.232c66.748-0.06,133.504-0.043,200.252-0.009c-0.136,99.797,0.009,199.603-0.068,299.401
	c-67.657,9.114-112.18,72.21-99.055,135.407c-159.113-0.162-318.234,0.043-477.355-0.111v27.776
	c118.485,0.034,236.971-0.009,355.456,0.017c-0.111,15.104,0.008,30.217-0.06,45.329c-42.749,0.481-88.793,29.085-105.908,80.572
	c-83.166-0.051-166.332-0.111-249.489,0.026v27.657c81.639,0.111,163.277-0.162,244.915,0.128
	c-8.714,45.713,37.315,120.444,110.404,120.994c0.222,48.512,0.017,97.032,0.103,145.553h27.691
	c0.025-49.263,0.094-98.526-0.034-147.789c49.427-9.025,93.905-56.644,90.82-118.861c34.193-0.017,68.395-0.051,102.588,0.017
	c-0.137,88.875-0.025,177.758-0.051,266.632h27.785c-0.179-43.657,0.051-87.313-0.12-130.97
	c166.69-0.043,333.372,0.009,500.053-0.026c13.304,14.788,30.507,26.257,49.51,32.248c0.154,32.913-0.094,65.835,0.102,98.748
	h27.674c-0.026-30.968,0.051-61.943-0.034-92.911c23.575,1.424,44.965-3.812,65.015-14.95c-0.299,35.942-0.051,71.902-0.12,107.861
	h27.682c0.19-134.475-0.52-128.929,0.811-130.978c66.893-0.009,133.794-0.026,200.687,0.009
	c-0.162,43.657,0.009,87.313-0.111,130.97h22.861c-0.034-43.657,0.034-87.322-0.034-130.978
	c113.272-0.026,226.543,0.017,339.815-0.026c29.411,32.896,76.181,46.248,117.828,33.51c101.474,101.51,93.618,93.665,97.681,97.493
	h39.049c-36.557-36.42-72.909-73.054-109.542-109.397c44.529-26.741,64.914-80.541,50.867-129.613
	c39.382,0.188,78.771-0.06,118.161,0.162c9.153,50.901,53.426,91.659,110.088,93.67c0.094,48.392,0.077,96.785,0,145.178h27.776
	c-0.043-49.306,0.085-98.62-0.068-147.925c52.777-14.834,80.875-51.502,87.535-90.854c11.949-0.271,115.274-0.137,120.371-0.102
	c20.753,20.736,41.506,41.48,62.242,62.251v-39.177c-19.271-19.537-46.621-46.34-50.33-50.824
	c-43.46-0.12-86.921,0.06-130.381-0.094c-0.623-14.541-4.361-28.877-10.539-42.027c-24.95-54.128-77.108-62.132-79.036-63.949
	c-0.025-2.042-6.111,4.958,90.513-91.836c0.358-1.715,0.034-3.516,0.042-5.24c57.87-4.133,96.591-39.801,108.459-87.031
	c23.748,0.017,47.513,0.026,71.271-0.009v-27.648c-22.605-0.213-45.201,0.06-67.806-0.12
	c0.516-62.091-50.383-114.038-111.804-114.927c-0.068-30.933,0.051-61.867-0.06-92.8c59.887-0.034,119.782,0.026,179.67-0.026
	v-27.648c-59.887-0.239-119.766,0.102-179.644-0.145c0.008-10.513,0.068-21.026-0.034-31.539
	c45.919-3.336,78.839-25.516,97.34-58.735c27.435-0.324,54.895,0.102,82.338-0.171v-27.656c-23.851-0.051-47.701,0.043-71.552-0.051
	c18.891-69.225-33.544-141.601-108.1-143.215c0.044-63.158,0.026-185.702,0.026-185.702c1-0.239,88.035-2.125,108.425-87.458
	c23.731-0.026,47.462,0.017,71.202-0.026v-27.648c-22.605-0.282-45.21,0.102-67.806-0.137
	c0.223-61.407-49.671-113.257-111.821-114.594c0-21.496,0.017-42.991-0.009-64.486
	C2440.284,145.038,2500.162,145.107,2560.041,145.149z M2002.601,260.844c78.173,22.394,151.53-42.032,145.971-115.627
	c12.658-0.142,176.09-0.169,204.16-0.034c-0.094,22.332-0.06,44.663-0.043,66.995c-41.562,7.369-89.296,49.216-90.231,112.06
	c-8.465,0.154-16.93,0.034-25.396,0.034c-17.976,18.237-241.112,241.267-264.934,265.054
	c-42.785-44.118-108.069-39.381-138.283-19.004c-23.458-23.484-46.831-47.061-70.468-70.357
	C1765.575,497.765,2000.434,262.72,2002.601,260.844z M2352.629,627.76c-57.413,10.346-103.867,74.883-86.349,140.689
	c-78.089,0.026-156.177,0.026-234.266,0c-0.259-0.259-41.187-41.187-41.395-41.489c1.88-5.189,33.242-56.73-1.203-115.55
	c21.342-21.515,241.9-242.01,259.286-259.379c5.768,0.017,11.537,0.017,17.314,0c10.086,40.473,41.698,74.144,86.716,84.582
	C2352.595,500.324,2352.783,564.042,2352.629,627.76z M1809.918,751.682c-14.029,13.781-27.827,27.793-41.762,41.651
	c-8.652-8.405-18.884-15.164-29.79-20.275c-0.273-63.369,0.085-126.746-0.145-190.114c23.015-0.145,46.037-0.094,69.06-0.026
	c1.357,1.357,2.714,2.722,4.096,4.096C1767.958,625.97,1760.765,702.902,1809.918,751.682z M1738.161,513.84
	c13.781,13.722,27.563,27.469,41.267,41.276c-13.755-0.026-27.511,0.119-41.25-0.077
	C1738.417,541.309,1738.298,527.562,1738.161,513.84z M1919.759,164.23c10.399,58.308,40.934,72.519,54.938,84.762
	c-6.371,6.044-227.59,227.409-231.202,231.023c-0.453-0.427-1.34-1.289-1.792-1.715c-1.143,0.026-2.278,0.051-3.388,0.077
	c-0.051-62.49-0.06-124.971,0.017-187.46c-55.177-42.163-110.217-84.523-165.513-126.524
	C1688.463,164.145,1804.115,164.46,1919.759,164.23z M1364.452,265.563c1.018-0.294,66.894-0.433,98.372-60.817
	c6.639-12.51,10.948-26.308,12.476-40.388c21.735-0.103,43.478-0.043,65.212-0.026c186.081,142.587,175.404,133.436,174.942,135.151
	c0,59.614-0.034,119.228,0.017,178.842c-82.569-0.043-165.137,0.128-247.697-0.085c-16.309-42.399-60.09-71.025-103.322-71.552
	C1364.605,359.652,1364.563,312.607,1364.452,265.563z M1715.471,555.125c-81.425,0-162.85,0.034-244.275-0.017
	c5.337-16.315,6.366-37.39,3.968-48.913c80.094-0.273,160.205-0.111,240.307-0.068
	C1715.437,522.459,1715.428,538.792,1715.471,555.125z M1715.471,1122.122c-60.058,0.077-120.124,0.137-180.173-0.06
	c0.518-11.316-2.392-30.755-9.796-46.882c33.98-33.92,67.926-67.874,101.845-101.854c29.404,18.993,57.219,21.098,88.124,15.71
	C1715.437,1033.401,1715.437,1077.757,1715.471,1122.122z M1274.016,1149.949c11.631-0.102,23.279,0,34.918-0.051
	c1.39,2.875,7.83,36.728,40.55,62.106c-15.539,15.556-31.095,31.087-46.635,46.643c-9.609,0.077-19.226,0.171-28.834-0.026
	C1274.093,1222.389,1274.075,1186.173,1274.016,1149.949z M1305.29,1122.216c-10.428-0.111-20.864,0.085-31.283-0.137
	c0.137-91.554,0.043-183.134,0.051-274.696c7.748-7.791,15.625-15.471,23.27-23.373c4.319-0.009,260.127-1.038,263.066,1.613
	c6.246,6.477,12.894,12.621,18.978,19.234c-11.868,42.35,1.003,83.844,26.624,110.524c-31.685,31.898-63.505,63.659-95.352,95.385
	C1447.388,968.485,1310.298,1006.269,1305.29,1122.216z M1364.555,757.006c-0.068-40.09-0.034-80.188-0.026-120.286
	c2.299-0.742,59.249,0.661,94.225-53.76c26.013-0.149,238.736-0.096,256.708-0.051c-0.025,60.732-0.025,121.455,0,182.187
	c-41.095-9.706-86.715,3.736-116.326,41.216c-2.876,3.516-5.103,7.492-7.791,11.145c-6.801-7.219-14.285-13.798-20.796-21.274
	c-81.767,0.085-163.524-0.094-245.291,0.094C1338.289,783.127,1351.362,770.003,1364.555,757.006z M1336.676,745.401
	c-59.039,60.402-48.958,49.964-56.644,50.782c-14.076,0.004-383.248,0.103-412.254-0.136
	c-0.52-53.975-42.303-103.847-100.634-111.206c0.162-33.98-0.085-67.959,0.085-101.939c165.666-0.119,331.332,0.06,497.007-0.085
	c17.935,25.648,39.465,43.171,72.576,50.944C1336.813,727.583,1336.793,730.079,1336.676,745.401z M1292.337,241.934
	c13.133,9.839,28.356,17.084,44.442,20.412c0,0,0.017,146.942,0.017,146.944c-28.942,5.271-65.569,29.516-81.69,69.035
	c-66.662,0.026-133.333-0.017-200.004,0.026C1134.155,399.511,1213.301,320.782,1292.337,241.934z M1027.292,506.118
	c73.412-0.162,146.833,0.068,220.245-0.128c-0.053,3.266-3.684,22.888,4.232,49.118c-91.255,0.051-182.502,0.009-273.749,0.026
	C994.455,538.809,1010.865,522.451,1027.292,506.118z M767.127,506.143c73.634-0.222,147.294,0.068,220.928-0.171
	c-16.367,16.452-32.887,32.759-49.314,49.161c-57.199-0.017-114.407,0.026-171.614-0.017
	C767.187,538.792,767.23,522.468,767.127,506.143z M739.428,973.565c0.562,0.567,110.448,111.035,110.652,111.283
	c-18.486,54.114,6.03,113.088,55.902,138.94c-11.546,11.674-23.211,23.245-34.816,34.867c-56.115,0.128-112.222-0.008-168.337,0.103
	c12.606-59.365-28.217-125.865-98.663-135.305c0.094-99.849-0.068-199.697,0.085-299.546c12.271,0.205,24.619-0.273,36.847,0.239
	c11.834,49.664,52.104,83.398,98.432,88.73C739.334,933.1,739.539,953.333,739.428,973.565z M694.602,506.152
	c14.95-0.23,29.909-0.068,44.86-0.034c0.017,16.324-0.094,32.657,0.06,48.981c-14.976,0.06-29.961,0.034-44.928,0.017
	C694.765,538.792,694.611,522.476,694.602,506.152z M739.522,434.395c-0.137,14.643-0.085,29.286-0.026,43.93
	c-14.968,0.009-29.943,0.017-44.911-0.009c0.068-13.133,0.145-26.266-0.009-39.398C719.365,440.946,735.868,435.146,739.522,434.395
	z M694.671,607.34c0.008-8.132,0.008-16.264-0.077-24.397c14.967-0.06,29.952-0.239,44.911,0.043
	c-0.179,33.937,0.094,67.883-0.136,101.82c-55.266,5.515-101.266,58.607-100.804,108.715c-0.137,0.683-0.418,2.057-0.555,2.739
	c-11.29-0.196-22.57,0.034-33.86-0.137c0.312-107.898-0.861-97.445,1.536-100.011C694.367,607.619,691.855,609.729,694.671,607.34z
	 M576.518,1412.187c-2.197,0.019-105.679,0.495-107.716-0.196c-11.343-36.208-40.751-67.157-85.564-77.79
	c-0.085-15.915-0.025-31.829-0.094-47.744c34.415,0.009,68.83-0.094,103.245,0.051c16.265,35.243,51.584,60.715,90.155,64.981
	C576.399,1371.722,576.441,1391.955,576.518,1412.187z M576.424,685.685c0.085,36.855,0.034,73.719,0.026,110.575
	c-65.51-0.196-131.03,0.102-196.54-0.145c-0.157-29.709-11.234-56.296-28.621-75.827c45.935-45.705,91.623-91.665,137.54-137.395
	c59.358-0.077,118.716,0.026,178.074-0.068c0.042,4.275-0.017,8.559,0.042,12.843C572.229,690.325,578.714,684.119,576.424,685.685z
	 M604.115,1351.558c41.318-5.338,74.867-31.641,89.924-65.05c49.792-0.145,99.592-0.051,149.393-0.043
	c-133.568,133.077-124.98,126.04-127.36,125.867c-37.273,0-74.547-0.094-111.829,0
	C604.012,1392.074,604.431,1371.816,604.115,1351.558z M1085.796,1548.072c-17.259-0.168-216.172-0.035-481.578-0.102
	c-0.077-35.977,0.042-71.944-0.077-107.912c41.643-0.043,83.277,0,124.92-0.017c51.123-51.251,102.366-102.374,153.523-153.591
	c56.192,0,112.375-0.043,168.568,0.026c34.167,34.568,68.795,68.702,102.844,103.381
	C1104.151,1400.991,1051.538,1473.755,1085.796,1548.072z M1246.317,1258.766c-80.558-0.216-167.805,0.162-183.765-0.205
	c-13.653-13.389-26.957-27.144-40.568-40.576c23.456-17.779,40.814-37.131,48.017-68.045c58.803-0.06,117.598-0.06,176.401,0
	C1246.231,1186.216,1246.393,1222.491,1246.317,1258.766z M1023.52,1258.809c-37.709-0.179-75.435-0.094-113.152-0.034
	c0.978-1.012,23.349-23.786,24.789-24.542c34.427,6.723,52.676-1.921,60.416-3.362
	C997.018,1232.021,1020.366,1255.608,1023.52,1258.809z M1246.342,1399.361c-19.422-11.298-42.394-16.555-64.785-14.694
	c-0.128-2.159-0.23-4.326,0.205-6.434c-30.455-30.635-61.064-61.124-91.452-91.81c52.036,0.077,104.064-0.06,156.1,0.068
	C1246.24,1324.106,1246.368,1361.738,1246.342,1399.361z M1246.283,835.351c0.102,95.624,0.042,191.241,0.034,286.865
	c-57.557-0.145-115.115,0.111-172.672-0.145c-1.373-111.23-142.722-160.055-210.586-63.548
	c-31.88-32.102-63.898-64.068-95.727-96.213c-0.358-16.41,0.06-32.922-0.23-49.365c52.027-7.229,88.546-44.326,97.954-89.02
	c131.08,0,262.161,0.043,393.233-0.017C1254.27,827.688,1250.763,832.134,1246.283,835.351z M1293.702,1548.046
	c12.365-28.075,13.383-57.245,6.383-80.324c58.436,0.111,116.881,0.017,175.326,0.034c0.12,26.718-0.06,53.427,0.094,80.145
	C1414.901,1548.183,1354.298,1547.841,1293.702,1548.046z M1475.411,1321.862c0.103,39.381-0.025,78.771,0.085,118.161
	c-1.008,0.001-185.349,0.145-187.742-0.222c-19.672-35.166-13.197,21.149-13.773-153.293c13.414-0.145,26.837-0.043,40.26-0.06
	c19.908-19.874,39.8-39.765,59.674-59.665c21.146,9.439,42.262,11.671,64.077,8.653c1-0.584,74.944-10.846,93.611-85.512
	c56.115-0.06,112.222,0.051,168.329-0.06C1686.535,1160.426,1600.537,1226.041,1475.411,1321.862z M1498.255,1547.944
	c0.034-26.743-0.008-53.478,0.017-80.213c34.789,0.06,298.142,0.061,314.795-0.017c-7.319,24.625-6.078,51.773,6.545,80.213
	C1712.493,1548.021,1605.374,1548.021,1498.255,1547.944z M2262.261,1320.548c-0.034,3.72,0.06,7.45-0.068,11.187
	c-54.806,0.403-107.81,44.017-112.094,108.271c-8.909,0.025-116.098,0.122-128.401-0.136
	c-37.291-63.943-139.785-84.448-196.804,0.205c-108.885-0.094-217.771,0.009-326.656-0.051c0.034-36.915,0.077-73.822-0.017-110.729
	c78.038-59.87,156.228-119.543,234.3-179.371c41.536-0.016,480.715-0.065,533.786,0.094c9.583,40.371,43.264,73.924,83.729,83.174
	C2313.828,1269.45,2266.01,1317.446,2262.261,1320.548z M2352.723,1009.593c-43.433,7.79-90.021,51.569-90.18,112.521
	c-39.795,0.081-442.976,0.117-524.306-0.017c0.068-46.984,0.077-93.978-0.017-140.962c32.205-16.294,51.389-39.912,59.887-66.654
	c56.813-0.132,507.726-0.094,554.615-0.077C2352.672,946.131,2352.629,977.866,2352.723,1009.593z M2352.732,886.585
	c-55.01,0.118-487.495,0.079-548.617,0.026c2.118-26.229-4.302-50.048-17.954-72.021c15.198-15.343,30.6-30.49,45.756-45.875
	c56.502,33.794,118.856,8.22,141.406-19.191c2.198,0.97,24.781,24.664,47.343,46.617c85.572,0.154,171.153-0.009,256.725,0.111
	c15.484,27.366,41.469,47.994,75.375,55.945C2352.57,863.656,2352.655,875.116,2352.732,886.585z"/>
</svg>
